<svg height="512" viewBox="0 0 96 96" width="512" xmlns="http://www.w3.org/2000/svg"><g id="Layer_4"><g><g><g><path d="m92 12.865v25.361c0 4.715-3.822 8.538-8.538 8.538h-4.668v10.759c0 2.121-2.532 3.218-4.08 1.768l-13.366-12.527h-18.224c-4.715 0-8.538-3.822-8.538-8.538v-25.361c0-4.715 3.822-8.538 8.538-8.538h40.338c4.716 0 8.538 3.823 8.538 8.538z" fill="#9abbfe"/></g></g><g><g><path d="m61.413 46.808v23.114c0 4.727-3.805 8.531-8.534 8.531h-18.212l-13.375 12.566c-1.556 1.441-4.092.345-4.092-1.786v-10.78h-4.669c-4.726 0-8.531-3.804-8.531-8.531v-25.361c0-4.727 3.805-8.531 8.531-8.531h22.077v2.19c0 4.727 3.805 8.531 8.531 8.531h18.215z" fill="#ffbc45"/></g></g><g><g><path d="m74.821 22.485h-23.056c-1.592 0-2.882-1.289-2.882-2.882s1.29-2.882 2.882-2.882h23.056c1.592 0 2.882 1.289 2.882 2.882s-1.29 2.882-2.882 2.882z" fill="#587fb7"/></g></g><g><g><path d="m74.821 34.013h-23.056c-1.592 0-2.882-1.289-2.882-2.882s1.29-2.882 2.882-2.882h23.056c1.592 0 2.882 1.289 2.882 2.882s-1.29 2.882-2.882 2.882z" fill="#587fb7"/></g></g><g><g><path d="m22.332 59.98c-.404 0-.75-.113-1.095-.231-.346-.174-.692-.405-.923-.63-.288-.293-.518-.58-.633-.923-.173-.349-.231-.749-.231-1.154 0-.749.288-1.497.864-2.021 1.039-1.092 2.94-1.092 4.035 0 .288.293.519.58.635.923.173.349.231.749.231 1.098 0 .405-.058.805-.231 1.154-.115.343-.346.63-.635.923-.518.517-1.268.861-2.017.861z" fill="#9b7b15"/></g></g><g><g><path d="m33.86 59.98c-.404 0-.75-.113-1.095-.231-.346-.174-.692-.405-.923-.63-.576-.523-.864-1.272-.864-2.077 0-.349.058-.749.231-1.098.115-.343.345-.63.633-.923.231-.287.577-.456.923-.63 1.037-.405 2.363-.174 3.111.63.577.523.865 1.272.865 2.021 0 .805-.288 1.554-.865 2.077-.229.225-.576.456-.922.63-.345.118-.69.231-1.094.231z" fill="#9b7b15"/></g></g><g><g><path d="m45.388 59.98c-.75 0-1.499-.343-2.018-.861-.576-.523-.864-1.272-.864-2.077 0-.749.288-1.497.864-2.021 1.039-1.092 2.997-1.092 4.035 0 .288.293.519.58.635.923.173.349.231.749.231 1.098 0 .805-.288 1.554-.865 2.077-.519.517-1.269.861-2.018.861z" fill="#9b7b15"/></g></g><g><g><path d="m22.331 25.367h-5.764c-1.592 0-2.882-1.289-2.882-2.882s1.29-2.882 2.882-2.882h5.764c1.592 0 2.882 1.289 2.882 2.882s-1.291 2.882-2.882 2.882z" fill="#e07b2f"/></g></g><g><g><path d="m79.971 77.244h-5.764c-1.592 0-2.882-1.289-2.882-2.882s1.29-2.882 2.882-2.882h5.764c1.592 0 2.882 1.289 2.882 2.882s-1.29 2.882-2.882 2.882z" fill="#e07b2f"/></g></g></g></g></svg>