<svg height="512" viewBox="0 0 96 96" width="512" xmlns="http://www.w3.org/2000/svg"><g id="CV"><rect fill="#737ec5" height="94" rx="3.36" width="69.72" x="18.14" y="1"/><rect fill="#b4c9e8" height="94" rx="3.36" width="69.72" x="13.65" y="1"/><path d="m78.23 4.36v27.81h5.14v-27.81a3.35 3.35 0 0 0 -3.37-3.36h-5.37a3.57 3.57 0 0 1 3.6 3.36z" fill="#fff"/><path d="m78.23 76.48v15.16a3.35 3.35 0 0 1 -3.36 3.36h-15.14a4.3 4.3 0 0 0 1.27-.88c17.68-17.69 16.77-16.61 17.23-17.64z" fill="#91b0e8"/><path d="m78.23 82.36v9.28a3.35 3.35 0 0 1 -3.36 3.36h-9.26z" fill="#737ec5"/><path d="m78.25 4.62c0 75.84.18 70.66-.39 71.86-.44 1 .48-.08-16.88 17.27a4.27 4.27 0 0 1 -2.98 1.25h-46.23a3.63 3.63 0 0 1 -3.63-3.62v-86.76a3.63 3.63 0 0 1 3.63-3.62h62.86a3.62 3.62 0 0 1 3.62 3.62z" fill="#e6ecf2"/><path d="m43.38 9.75v46.05a2.75 2.75 0 0 0 2.74 2.75h10a2.75 2.75 0 0 0 1.94-.8l13.4-13.39a2.79 2.79 0 0 0 .8-2v-32.61a2.75 2.75 0 0 0 -2.76-2.75h-23.38a2.75 2.75 0 0 0 -2.74 2.75z" fill="#fff"/><path d="m39.42 1v94h-27.65a3.63 3.63 0 0 1 -3.63-3.62v-86.76a3.63 3.63 0 0 1 3.63-3.62z" fill="#d2206e"/><path d="m39.42 65.94v29.06h-27.65a3.63 3.63 0 0 1 -3.63-3.62v-29.06a3.63 3.63 0 0 0 3.63 3.62z" fill="#a0116e"/><path d="m39.42 1v94h-17.5a3.62 3.62 0 0 1 -3.62-3.62v-86.76a3.62 3.62 0 0 1 3.62-3.62z" fill="#ff526e"/><rect fill="#ff9d87" height="33.63" rx="1.75" width="9.12" x="24.3" y="55.38"/><path d="m77.86 76.48c-.44 1 .48-.08-16.88 17.27a3.83 3.83 0 0 1 -1.25.86v-14.51a3.62 3.62 0 0 1 3.62-3.62z" fill="#bec9d9"/><path d="m33.94 7.91v22.92a2.32 2.32 0 0 1 -2.31 2.32h-16.45a2.32 2.32 0 0 1 -2.32-2.32v-22.92a2.31 2.31 0 0 1 2.32-2.31h16.45a2.31 2.31 0 0 1 2.31 2.31z" fill="#8ad7ff"/><circle cx="23.4" cy="16.74" fill="#3f3c6a" r="5.48"/><path d="m33.94 30.83a2.33 2.33 0 0 1 -2.32 2.32h-16.44a2.32 2.32 0 0 1 -2.32-2.32 5.39 5.39 0 0 1 .52-2.33 11.14 11.14 0 0 1 20 0 5.38 5.38 0 0 1 .56 2.33z" fill="#3f3c6a"/><path d="m52 19.06a6.45 6.45 0 1 1 5.22-10.28 1 1 0 1 1 -1.61 1.22 4.44 4.44 0 1 0 .12 5.13 1 1 0 1 1 1.65 1.12 6.42 6.42 0 0 1 -5.38 2.81z" fill="#5f60b1"/><path d="m60.75 18.49-2.85-6a1 1 0 0 1 .48-1.33 1 1 0 0 1 1.33.47l1.94 4.07 1.94-4.07a1 1 0 0 1 1.8.86l-2.84 6a1 1 0 0 1 -1.8 0z" fill="#5f60b1"/><rect fill="#8ad7ff" height="6.47" rx="1.77" width="21.08" x="12.86" y="59.47"/><rect fill="#53cd88" height="6.47" rx="1.77" width="21.08" x="12.86" y="71.16"/><rect fill="#ffca6e" height="6.47" rx="1.77" width="7.42" x="12.86" y="82.84"/><rect fill="#ffca6e" height="6.47" rx="1.77" width="7.42" x="26.52" y="82.84"/><g fill="#5f60b1"><path d="m33.94 41.15h-21.08a1 1 0 0 1 0-2h21.08a1 1 0 0 1 0 2z"/><path d="m33.94 46.31h-21.08a1 1 0 0 1 0-2h21.08a1 1 0 0 1 0 2z"/><path d="m28.28 51.48h-15.42a1 1 0 0 1 0-2h15.42a1 1 0 0 1 0 2z"/><path d="m70.43 27h-23.83a1 1 0 0 1 0-2h23.83a1 1 0 0 1 0 2z"/><path d="m70.43 31.84h-23.83a1 1 0 0 1 0-2h23.83a1 1 0 0 1 0 2z"/><path d="m70.43 36.7h-23.83a1 1 0 0 1 0-2h23.83a1 1 0 0 1 0 2z"/><path d="m55.06 41.55h-8.46a1 1 0 0 1 0-2h8.46a1 1 0 0 1 0 2z"/><path d="m63 41.55h-2.54a1 1 0 1 1 0-2h2.54a1 1 0 0 1 0 2z"/></g><path d="m48.51 51.89h-1.91a1 1 0 0 1 0-2h1.91a1 1 0 1 1 0 2z" fill="#53cd88"/><path d="m48.51 58.54h-1.91a1 1 0 0 1 0-2h1.91a1 1 0 0 1 0 2z" fill="#53cd88"/><path d="m48.51 65.19h-1.91a1 1 0 1 1 0-2h1.91a1 1 0 0 1 0 2z" fill="#53cd88"/><path d="m48.51 71.84h-1.91a1 1 0 1 1 0-2h1.91a1 1 0 0 1 0 2z" fill="#53cd88"/><path d="m70.43 51.89h-16.38a1 1 0 0 1 0-2h16.38a1 1 0 0 1 0 2z" fill="#5f60b1"/><path d="m70.43 58.54h-16.38a1 1 0 0 1 0-2h16.38a1 1 0 0 1 0 2z" fill="#5f60b1"/><path d="m70.43 65.19h-16.38a1 1 0 0 1 0-2h16.38a1 1 0 0 1 0 2z" fill="#5f60b1"/><path d="m70.43 71.84h-16.38a1 1 0 0 1 0-2h16.38a1 1 0 0 1 0 2z" fill="#5f60b1"/><path d="m53 81.8h-6.4a1 1 0 0 1 0-2h6.4a1 1 0 1 1 0 2z" fill="#5f60b1"/><path d="m53 86.55h-6.4a1 1 0 0 1 0-2h6.4a1 1 0 1 1 0 2z" fill="#5f60b1"/><path d="m53 91.3h-6.4a1 1 0 0 1 0-2h6.4a1 1 0 1 1 0 2z" fill="#5f60b1"/></g></svg>