<svg id="Layer_1" height="512" viewBox="0 0 48 48" width="512" xmlns="http://www.w3.org/2000/svg"><g><g><path d="m47.3 24.8h-2.5c-.4 0-.8-.3-.8-.8s.3-.8.8-.8h2.5c.4 0 .8.3.8.8s-.4.8-.8.8z" fill="#aab6d6"/></g><g><g><path d="m24 4.4c-.4 0-.8-.3-.8-.8v-2.4c0-.4.3-.8.8-.8s.8.3.8.8v2.4c0 .5-.4.8-.8.8z" fill="#aab6d6"/></g><g><g><g><path d="m3.2 24.8h-2.4c-.5 0-.8-.4-.8-.8s.3-.8.8-.8h2.5c.3.1.7.4.7.8s-.4.8-.8.8z" fill="#aab6d6"/></g></g><g><g><path d="m24 47.5c-.4 0-.8-.3-.8-.8v-2.4c0-.4.3-.8.8-.8s.8.3.8.8v2.4c0 .5-.4.8-.8.8z" fill="#aab6d6"/></g></g><g><g><path d="m9.3 10.4c-.2 0-.4-.1-.5-.2l-1.8-1.8c-.3-.2-.3-.7 0-1s.8-.3 1.1 0l1.7 1.7c.3.3.3.8 0 1.1-.1.1-.3.2-.5.2z" fill="#aab6d6"/></g></g><g><g><path d="m40.4 40.8c-.2 0-.4-.1-.5-.2l-1.7-1.7c-.3-.3-.3-.8 0-1.1s.8-.3 1.1 0l1.7 1.7c.3.3.3.8 0 1.1-.2.2-.4.2-.6.2z" fill="#aab6d6"/></g></g><g><g><path d="m38.7 10.4c-.2 0-.4-.1-.5-.2-.3-.3-.3-.8 0-1.1l1.7-1.7c.3-.3.8-.3 1.1 0s.3.8 0 1.1l-1.7 1.7c-.2.1-.4.2-.6.2z" fill="#aab6d6"/></g></g><g><g><path d="m7.6 40.8c-.2 0-.4-.1-.5-.2-.3-.3-.3-.8 0-1.1l1.7-1.7c.3-.3.8-.3 1.1 0s.3.8 0 1.1l-1.7 1.7c-.3.2-.5.2-.6.2z" fill="#aab6d6"/></g></g><g><g><path d="m2.5 33.5c-.3 0-.6-.2-.7-.5-.2-.4 0-.8.4-1l2.3-.9c.4-.2.8 0 1 .4s0 .8-.4 1l-2.3.9c-.1 0-.2.1-.3.1z" fill="#aab6d6"/></g></g><g><g><path d="m43.2 17c-.3 0-.6-.2-.7-.5-.2-.4 0-.8.4-1l2.3-.9c.4-.2.8 0 1 .4s0 .8-.4 1l-2.3.9c-.1 0-.2.1-.3.1z" fill="#aab6d6"/></g></g><g><g><path d="m16 6c-.3 0-.6-.2-.7-.5l-.9-2.2c-.2-.4 0-.8.4-1s.8 0 1 .4l.9 2.2c.2.4 0 .8-.4 1-.1 0-.2.1-.3.1z" fill="#aab6d6"/></g></g><g><g><path d="m32.9 45.8c-.3 0-.6-.2-.7-.5l-.9-2.2c-.2-.4 0-.8.4-1s.8 0 1 .4l.9 2.2c.2.4 0 .8-.4 1-.1.1-.2.1-.3.1z" fill="#aab6d6"/></g></g><g><g><path d="m4.8 17c-.1 0-.2 0-.3-.1l-2.3-.9c-.4-.2-.6-.6-.4-1s.6-.6 1-.4l2.3.9c.4.2.6.6.4 1-.1.3-.4.5-.7.5z" fill="#aab6d6"/></g></g><g><g><path d="m45.5 33.5c-.1 0-.2 0-.3-.1l-2.3-.9c-.4-.2-.6-.6-.4-1s.6-.6 1-.4l2.3.9c.4.2.6.6.4 1-.1.3-.4.5-.7.5z" fill="#aab6d6"/></g></g><g><g><path d="m32 6c-.1 0-.2 0-.3-.1-.4-.2-.6-.6-.4-1l.9-2.2c.2-.4.6-.6 1-.4s.6.6.4 1l-.9 2.2c-.2.3-.5.5-.7.5z" fill="#aab6d6"/></g></g><g><g><path d="m15.1 45.8c-.1 0-.2 0-.3-.1-.4-.2-.6-.6-.4-1l.9-2.2c.2-.4.6-.6 1-.4s.6.6.4 1l-.9 2.2c-.1.3-.4.5-.7.5z" fill="#aab6d6"/></g></g></g></g><path d="m36 20c-.1-.9-.9-1.4-1.8-1.4h-8.6l1.6-5.7c.4-1.5-.5-3-2-3.4l-.8-.2c-.9 3.7-2.9 6.7-5.8 9.3v12.9c1.5.7 3.2 1 4.9 1h7.9c.9 0 1.7-.6 1.8-1.4.2-1.1-.7-2-1.7-2h.9c.9 0 1.7-.6 1.8-1.5.2-1.1-.7-2-1.7-2h.9c.9 0 1.7-.6 1.8-1.5.2-1.1-.7-2-1.7-2h.9c1-.1 1.8-1 1.6-2.1z" fill="#ffd599"/><path d="m34.3 22h-1c1.1 0 1.9.9 1.7 2-.1.9-.9 1.5-1.8 1.5h-.9c1.1 0 1.9.9 1.7 2 0 .9-.8 1.5-1.7 1.5h-.9c1.1 0 1.9.9 1.7 2-.1.9-.9 1.4-1.8 1.4h-7.9c-.9 0-1.8-.1-2.6-.3s-1.5-.4-2.2-.7v-12.9c2.9-2.6 5-5.6 5.8-9.3l.8.2c1.5.4 2.4 1.9 2 3.4l-1.6 5.7h8.6c.9 0 1.7.6 1.8 1.4.2 1.2-.6 2.1-1.7 2.1z" fill="#ffd599"/><path d="m16.9 15.9h-4.1c-.9 0-1.7.8-1.7 1.7v13.9c0 .9.8 1.7 1.7 1.7h4.1c.9 0 1.7-.8 1.7-1.7v-13.9c0-.9-.8-1.7-1.7-1.7z" fill="#94d5ff"/><path d="m18.6 17.6v1.3c0-.9-.8-1.7-1.7-1.7h-4.1c-.9 0-1.7.8-1.7 1.7v-1.3c0-1 .8-1.7 1.7-1.7h4.1c.9 0 1.7.8 1.7 1.7z" fill="#a9ddff"/><path d="m11.1 31.6v-1.3c0 1 .8 1.7 1.7 1.7h4.1c1 0 1.7-.8 1.7-1.7v1.3c0 1-.8 1.7-1.7 1.7h-4.1c-.9 0-1.7-.8-1.7-1.7z" fill="#85bfe5"/><g fill="#fcc67e"><path d="m25.6 18.5h-1l1.8-2.7z"/><path d="m34.9 22.9-6.8-.9h5.2c.7 0 1.3.4 1.6.9z"/><path d="m33.9 26.4-4.7-.9h3.2c.6 0 1.2.4 1.5.9z"/><path d="m33 29.9-2.8-.9h1.2c.7 0 1.3.4 1.6.9z"/><path d="m20.8 32.2c-.8-.2-1.5-.4-2.2-.7v-13z"/></g><g><circle cx="14.8" cy="29.1" fill="#e1ecff" r="1.5"/><path d="m16.3 29.1c0 .8-.7 1.5-1.5 1.5-.6 0-1.1-.3-1.3-.8.2.1.4.2.7.2.8 0 1.5-.7 1.5-1.5 0-.3-.1-.5-.2-.7.5.2.8.7.8 1.3z" fill="#cae0ff"/><path d="m14.8 28.2c0 .3-.3.6-.6.6s-.5-.2-.6-.4c.2-.3.5-.6.9-.7.2.1.3.2.3.5z" fill="#eef5ff"/></g></g></svg>