<svg id="Flat" height="512" viewBox="0 0 64 64" width="512" xmlns="http://www.w3.org/2000/svg"><path d="m13 31h18a10 10 0 0 1 10 10v14a0 0 0 0 1 0 0h-34a4 4 0 0 1 -4-4v-10a10 10 0 0 1 10-10z" fill="#6dab94"/><path d="m33 33h-18a10 10 0 0 0 -10 10v10a3.9718 3.9718 0 0 0 .36 1.64 3.9718 3.9718 0 0 0 1.64.36h34v-14a9.9419 9.9419 0 0 0 -2.0078-5.9922 9.9419 9.9419 0 0 0 -5.9922-2.0078z" fill="#5ba187"/><path d="m10 46a1 1 0 0 0 0 2h10v-2z" fill="#508d76"/><path d="m20 46a9 9 0 0 1 9 9 0 0 0 0 1 0 0h-9a0 0 0 0 1 0 0v-9a0 0 0 0 1 0 0z" fill="#508d76"/><path d="m1 55h62v7h-62z" fill="#d6dff3"/><path d="m25 55h7.0023l1.9977-5h-12v2a3 3 0 0 0 3 3z" fill="#858489"/><path d="m35.0023 31h23a3 3 0 0 1 3 3v18a3 3 0 0 1 -3 3h-26a0 0 0 0 1 0 0v-21a3 3 0 0 1 3-3z" fill="#717075"/><circle cx="46.502" cy="43" fill="#858489" r="4"/><path d="m20 48a7 7 0 0 1 7 7 0 0 0 0 1 0 0h-7a0 0 0 0 1 0 0v-7a0 0 0 0 1 0 0z" fill="#efc599"/><path d="m3 57h60v5h-60z" fill="#becdf0"/><path d="m17.5 26h9a0 0 0 0 1 0 0v5.5a4.5 4.5 0 0 1 -4.5 4.5 4.5 4.5 0 0 1 -4.5-4.5v-5.5a0 0 0 0 1 0 0z" fill="#edb27c"/><path d="m22 2a12.5 12.5 0 0 0 -12.5 12.5v4.5h25v-4.5a12.5 12.5 0 0 0 -12.5-12.5z" fill="#a17a4e"/><path d="m24 4a12.5 12.5 0 0 0 -12.5 12.5v2.5h23v-4.5a12.437 12.437 0 0 0 -2.7233-7.7758 12.4373 12.4373 0 0 0 -7.7767-2.7242z" fill="#956938"/><path d="m30.5 16v6h1a3 3 0 0 0 3-3 3 3 0 0 0 -3-3z" fill="#edb27c"/><path d="m12.5 22h1v-6h-1a3 3 0 0 0 -3 3 3 3 0 0 0 3 3z" fill="#edb27c"/><path d="m26.6364 11a15.6219 15.6219 0 0 1 -11.4551 5h-1.6813v5.5a8.5 8.5 0 0 0 8.5 8.5 8.5 8.5 0 0 0 8.5-8.5v-5.5z" fill="#efc599"/></svg>