<svg xmlns="http://www.w3.org/2000/svg" version="1.1" xmlns:xlink="http://www.w3.org/1999/xlink" width="512" height="512" x="0" y="0" viewBox="0 0 410.2 410.2" style="enable-background:new 0 0 512 512" xml:space="preserve" class=""><g><path d="M126.02 209.9H95.1c-26.703.066-48.334 21.697-48.4 48.4v15.5a5.3 5.3 0 0 0 5.3 5.3h117.16a5.3 5.3 0 0 0 5.26-5.34V258.3c-.066-26.703-21.697-48.334-48.4-48.4zm37.8 58.56H57.3V258.3c.109-20.831 16.969-37.691 37.8-37.8h30.92c20.831.109 37.691 16.969 37.8 37.8v10.16zM358.26 257.38h-142a5.3 5.3 0 0 0 0 10.58h142a5.3 5.3 0 0 0 0-10.58zM135.48 192.38l.32-.3.013-.013c13.938-13.945 13.933-36.549-.013-50.487a35.599 35.599 0 0 0-25.24-10.48 35.6 35.6 0 0 0-24.94 10.18l-.32.3-.013.013c-13.938 13.945-13.933 36.549.013 50.487 13.815 13.843 36.201 13.977 50.18.3zM92.84 149.1l.26-.26c9.858-9.504 25.504-9.389 35.22.26l.06-.02c9.809 9.816 9.809 25.724 0 35.54l-.26.26c-9.86 9.549-25.551 9.442-35.28-.24-9.809-9.816-9.809-25.724 0-35.54z" fill="#ffffff" opacity="1" data-original="#000000"></path><path d="M374.9 57.38H35.3C15.827 57.435.055 73.207 0 92.68v224.84c.055 19.473 15.827 35.245 35.3 35.3h339.6c19.473-.055 35.245-15.827 35.3-35.3V92.68c-.055-19.473-15.827-35.245-35.3-35.3zm24.72 260.14c-.044 13.634-11.086 24.676-24.72 24.72H35.3c-13.634-.044-24.676-11.086-24.72-24.72V92.68c.044-13.634 11.086-24.676 24.72-24.72h339.6c13.634.044 24.676 11.086 24.72 24.72v224.84z" fill="#ffffff" opacity="1" data-original="#000000"></path><path d="M358.26 142.26h-142a5.3 5.3 0 0 0 0 10.58h142a5.3 5.3 0 0 0 0-10.58zM358.26 199.82h-142a5.3 5.3 0 0 0 0 10.58h142a5.3 5.3 0 0 0 0-10.58zM358.26 171.04h-142a5.3 5.3 0 0 0 0 10.58h142a5.3 5.3 0 0 0 0-10.58zM358.26 228.6h-142a5.3 5.3 0 0 0 0 10.58h142a5.3 5.3 0 0 0 0-10.58z" fill="#ffffff" opacity="1" data-original="#000000"></path></g></svg>