<svg id="Flat" height="512" viewBox="0 0 64 64" width="512" xmlns="http://www.w3.org/2000/svg"><path d="m10 49h4v11h-4z" fill="#b3b3f3"/><path d="m12 49h2v11h-2z" fill="#a0a0f0"/><path d="m9 60h6a2 2 0 0 1 2 2v1a0 0 0 0 1 0 0h-10a0 0 0 0 1 0 0v-1a2 2 0 0 1 2-2z" fill="#505069"/><path d="m50 49h4v11h-4z" fill="#b3b3f3"/><path d="m52 49h2v11h-2z" fill="#a0a0f0"/><path d="m49 60h6a2 2 0 0 1 2 2v1a0 0 0 0 1 0 0h-10a0 0 0 0 1 0 0v-1a2 2 0 0 1 2-2z" fill="#505069"/><rect fill="#f9f9f9" height="31" rx="4" width="62" x="1" y="18"/><rect fill="#f0f0f0" height="28" rx="4" width="59" x="4" y="21"/><rect fill="#fff0a0" height="4" rx="2" width="32" x="16" y="15"/><path d="m48 17h-27a2 2 0 0 0 -2 2h27a2 2 0 0 0 2-2z" fill="#fae16e"/><path d="m30 3h4a12 12 0 0 1 12 12 0 0 0 0 1 0 0h-28a0 0 0 0 1 0 0 12 12 0 0 1 12-12z" fill="#fae16e"/><path d="m34 3h-1a12 12 0 0 0 -12 12h25a12 12 0 0 0 -12-12z" fill="#f6d24c"/><path d="m40.528 23h-17.056a4 4 0 0 1 -3.578-2.211l-.894-1.789h26l-.894 1.789a4 4 0 0 1 -3.578 2.211z" fill="#fae16e"/><path d="m44.106 20.789.894-1.789h-23l.894 1.789a4 4 0 0 0 3.578 2.211h14.056a4 4 0 0 0 3.578-2.211z" fill="#f6d24c"/><path d="m34.526 1h-5.052a2 2 0 0 0 -1.956 2.419l2.482 11.581h4l2.482-11.581a2 2 0 0 0 -1.956-2.419z" fill="#fff0a0"/><path d="m36.488 2.668a1.976 1.976 0 0 0 -.783-.168h-4.405a2 2 0 0 0 -1.96 2.419l2.16 10.081h2.5l2.482-11.581a1.979 1.979 0 0 0 .006-.751z" fill="#fae16e"/><g fill="#505069"><path d="m53.4 34.451-3.9-5.2v4.749a.75.75 0 0 1 -.75.75.75.75 0 0 1 -.75-.75v-7a.75.75 0 0 1 1.35-.45l3.9 5.2v-4.75a.75.75 0 0 1 .75-.75.75.75 0 0 1 .75.75v7a.75.75 0 0 1 -1.35.451z"/><path d="m45.75 34.751a.75.75 0 0 1 -.75-.751v-7a.75.75 0 0 1 1.5 0v7a.75.75 0 0 1 -.75.751z"/><path d="m14.511 34.431-2.449-3.5-2.448 3.5a.75.75 0 0 1 -1.364-.431v-7a.75.75 0 0 1 .75-.75.75.75 0 0 1 .75.75v4.62l1.7-2.425a.75.75 0 0 1 1.229 0l1.7 2.425v-4.62a.75.75 0 0 1 .75-.75.75.75 0 0 1 .75.75v7a.75.75 0 0 1 -1.368.431z"/><path d="m35.56 30.5 2.516-3.019a.75.75 0 1 0 -1.152-.961l-3.049 3.659v-3.179a.75.75 0 0 0 -1.5 0v7a.75.75 0 1 0 1.5 0v-1.478l.708-.85 2.341 2.809a.75.75 0 0 0 1.152-.96z"/><path d="m20.375 34.751a3.379 3.379 0 0 1 -3.375-3.375v-1.75a3.375 3.375 0 0 1 6.75 0v1.75a3.379 3.379 0 0 1 -3.375 3.375zm0-7a1.877 1.877 0 0 0 -1.875 1.875v1.75a1.875 1.875 0 1 0 3.75 0v-1.75a1.877 1.877 0 0 0 -1.875-1.875z"/><path d="m29.748 31.667a2.931 2.931 0 0 0 -1.561-5.416h-2.187a.75.75 0 0 0 -.75.75v7a.75.75 0 0 0 1.5 0v-1.875h1.187l.443.332a3.662 3.662 0 0 1 1.284 1.779.749.749 0 1 0 1.422-.473 5.14 5.14 0 0 0 -1.338-2.097zm-3-3.916h1.437a1.438 1.438 0 1 1 0 2.875h-1.435z"/><path d="m7.187 37.251h-2.187a.75.75 0 0 0 -.75.75v7a.75.75 0 0 0 1.5 0v-1.875h1.437a2.938 2.938 0 1 0 0-5.875zm0 4.375h-1.437v-2.875h1.437a1.438 1.438 0 1 1 0 2.875z"/><path d="m46.5 44.251h-2.75v-2h1.875a.75.75 0 0 0 0-1.5h-1.875v-2h2.75a.75.75 0 0 0 0-1.5h-3.5a.75.75 0 0 0 -.75.75v7a.75.75 0 0 0 .75.75h3.5a.75.75 0 0 0 0-1.5z"/><path d="m33.125 41.188h-2.625a.75.75 0 0 0 0 1.5h1.75a2.312 2.312 0 0 1 -4.5-.75v-.875a2.31 2.31 0 0 1 3.964-1.614.75.75 0 1 0 1.072-1.049 3.809 3.809 0 0 0 -6.536 2.663v.875a3.813 3.813 0 1 0 7.625 0 .75.75 0 0 0 -.75-.75z"/><path d="m21.625 37.251a3.379 3.379 0 0 0 -3.375 3.375v1.75a3.375 3.375 0 1 0 6.75 0v-1.75a3.379 3.379 0 0 0 -3.375-3.375zm1.875 5.125a1.875 1.875 0 1 1 -3.75 0v-1.75a1.875 1.875 0 0 1 3.75 0z"/><path d="m39.748 42.667a2.931 2.931 0 0 0 -1.561-5.416h-2.187a.75.75 0 0 0 -.75.75v7a.75.75 0 1 0 1.5 0v-1.875h1.187l.448.335a3.672 3.672 0 0 1 1.279 1.776.749.749 0 0 0 .948.474.749.749 0 0 0 .474-.948 5.173 5.173 0 0 0 -1.338-2.096zm-1.561-1.041h-1.437v-2.875h1.437a1.438 1.438 0 1 1 0 2.875z"/><path d="m17.086 44.761a5.183 5.183 0 0 0 -1.338-2.094 2.931 2.931 0 0 0 -1.561-5.416h-2.187a.75.75 0 0 0 -.75.75v7a.75.75 0 0 0 1.5 0v-1.875h1.187l.448.335a3.672 3.672 0 0 1 1.279 1.776.749.749 0 1 0 1.422-.473zm-4.336-6.01h1.437a1.438 1.438 0 1 1 0 2.875h-1.437z"/><path d="m51.25 38.751h1.75a.75.75 0 0 0 0-1.5h-1.75a2.5 2.5 0 0 0 0 5 1 1 0 0 1 0 2h-1.75a.75.75 0 0 0 0 1.5h1.75a2.5 2.5 0 0 0 0-5 1 1 0 0 1 0-2z"/><path d="m57.25 40.751a1 1 0 0 1 0-2h1.75a.75.75 0 0 0 0-1.5h-1.75a2.5 2.5 0 0 0 0 5 1 1 0 0 1 0 2h-1.75a.75.75 0 0 0 0 1.5h1.75a2.5 2.5 0 0 0 0-5z"/></g></svg>